# Rhino

o object_1
v -0.25 1 0
v 0 1 -0.25
v 0 0 0
v 0 1 -0.25
v 0.25 1 0
v 0 0 0
v 0.25 1 0
v 0 1 0.25
v 0 0 0
v 0 1 0.25
v -0.25 1 0
v 0 0 0
v 0 1 -0.25
v 0 1.25 -0.25
v -0.25 1 0
v -0.25 1.25 0
v 0.25 1 0
v 0.25 1.25 0
v 0 1 -0.25
v 0 1.25 -0.25
v 0 1 0.25
v 0 1.25 0.25
v 0.25 1 0
v 0.25 1.25 0
v -0.25 1 0
v -0.25 1.25 0
v 0 1 0.25
v 0 1.25 0.25
v -0.25 1.25 0
v 0 1.25 -0.25
v 0.25 1.25 0
v 0 1.25 0.25
vt 0.78575658798217773 0
vt 0.98953437805175781 0
vt 0.88764548301696777 0.58951467275619507
vt 0.58951467275619507 0
vt 0.58951467275619507 0.20377781987190247
vt 0 0.10188890993595123
vt 0.58951467275619507 0.20524266362190247
vt 0.58951467275619507 0.40902048349380493
vt 0 0.30713158845901489
vt 0.58051389455795288 0.41048532724380493
vt 0.78429174423217773 0.41048532724380493
vt 0.6824028491973877 0.99853515625
vt 0.14366362988948822 0.70524269342422485
vt 0 0.70524269342422485
vt 0.14366362988948822 0.91048532724380493
vt 0 0.91048532724380493
vt 0.28879210352897644 0.41048532724380493
vt 0.14512847363948822 0.41048532724380493
vt 0.28879210352897644 0.61572802066802979
vt 0.14512847363948822 0.61572802066802979
vt 0.14366362988948822 0.41048532724380493
vt 0 0.41048532724380493
vt 0.14366362988948822 0.61572802066802979
vt 0 0.61572802066802979
vt 0.28879210352897644 0.70524269342422485
vt 0.14512847363948822 0.70524269342422485
vt 0.28879210352897644 0.91048532724380493
vt 0.14512847363948822 0.91048532724380493
vt 0.57904905080795288 0.55561381578445435
vt 0.43465301394462585 0.70074230432510376
vt 0.29025694727897644 0.55561381578445435
vt 0.43465301394462585 0.41048532724380493
vn -0.69631063938140869 -0.17407765984535217 -0.69631063938140869
vn -0.69631063938140869 -0.17407765984535217 -0.69631063938140869
vn -0.69631063938140869 -0.17407765984535217 -0.69631063938140869
vn 0.69631063938140869 -0.17407765984535217 -0.69631063938140869
vn 0.69631063938140869 -0.17407765984535217 -0.69631063938140869
vn 0.69631063938140869 -0.17407765984535217 -0.69631063938140869
vn 0.69631063938140869 -0.17407765984535217 0.69631063938140869
vn 0.69631063938140869 -0.17407765984535217 0.69631063938140869
vn 0.69631063938140869 -0.17407765984535217 0.69631063938140869
vn -0.69631063938140869 -0.17407765984535217 0.69631063938140869
vn -0.69631063938140869 -0.17407765984535217 0.69631063938140869
vn -0.69631063938140869 -0.17407765984535217 0.69631063938140869
vn -0.70710676908493042 0 -0.70710676908493042
vn -0.70710676908493042 0 -0.70710676908493042
vn -0.70710676908493042 0 -0.70710676908493042
vn -0.70710676908493042 0 -0.70710676908493042
vn 0.70710676908493042 0 -0.70710676908493042
vn 0.70710676908493042 0 -0.70710676908493042
vn 0.70710676908493042 0 -0.70710676908493042
vn 0.70710676908493042 0 -0.70710676908493042
vn 0.70710676908493042 0 0.70710676908493042
vn 0.70710676908493042 0 0.70710676908493042
vn 0.70710676908493042 0 0.70710676908493042
vn 0.70710676908493042 0 0.70710676908493042
vn -0.70710676908493042 0 0.70710676908493042
vn -0.70710676908493042 0 0.70710676908493042
vn -0.70710676908493042 0 0.70710676908493042
vn -0.70710676908493042 0 0.70710676908493042
vn 0 1 0
vn 0 1 0
vn 0 1 0
vn 0 1 0
f 29/29/29 32/32/32 31/31/31 30/30/30
f 3/3/3 1/1/1 2/2/2
f 6/6/6 4/4/4 5/5/5
f 9/9/9 7/7/7 8/8/8
f 12/12/12 10/10/10 11/11/11
f 14/14/14 13/13/13 15/15/15 16/16/16
f 18/18/18 17/17/17 19/19/19 20/20/20
f 22/22/22 21/21/21 23/23/23 24/24/24
f 26/26/26 25/25/25 27/27/27 28/28/28
